M48
; DRILL file {KiCad 7.0.11+dfsg-1build4} date Sun Sep 27 20:09:14 2026
; FORMAT={-:-/ absolute / metric / decimal}
; #@! TF.CreationDate,2026-09-27T20:09:14+00:00
; #@! TF.GenerationSoftware,Kicad,Pcbnew,7.0.11+dfsg-1build4
; #@! TF.FileFunction,Plated,1,2,PTH
FMAT,2
METRIC
; #@! TA.AperFunction,Plated,PTH,ViaDrill
T1C0.600
; #@! TA.AperFunction,Plated,PTH,ComponentDrill
T2C0.800
; #@! TA.AperFunction,Plated,PTH,ComponentDrill
T3C0.920
; #@! TA.AperFunction,Plated,PTH,ComponentDrill
T4C1.000
; #@! TA.AperFunction,Plated,PTH,ComponentDrill
T5C1.016
; #@! TA.AperFunction,Plated,PTH,ComponentDrill
T6C1.100
; #@! TA.AperFunction,Plated,PTH,ComponentDrill
T7C1.300
; #@! TA.AperFunction,Plated,PTH,ComponentDrill
T8C2.000
; #@! TA.AperFunction,Plated,PTH,ComponentDrill
T9C2.330
%
G90
G05
T1
X63.12Y-97.322
X64.971Y-110.764
X65.823Y-87.413
X71.046Y-57.041
X73.432Y-70.59
X76.874Y-91.74
X78.57Y-72.561
X78.727Y-63.014
X79.103Y-78.719
X81.951Y-95.475
X82.669Y-63.22
X83.041Y-78.975
X86.777Y-86.003
X87.027Y-66.67
X88.81Y-92.585
X89.395Y-65.52
X90.27Y-95.475
X93.105Y-53.904
X93.122Y-60.813
X93.852Y-114.311
X95.086Y-60.723
X96.445Y-80.137
X97.383Y-104.48
X97.541Y-107.689
X97.605Y-101.29
X97.926Y-116.404
X99.438Y-118.532
X99.713Y-90.058
X99.814Y-64.642
X102.456Y-72.518
X102.522Y-58.32
X103.037Y-67.385
X103.405Y-65.625
X103.528Y-76.532
X104.499Y-107.99
X104.57Y-112.286
X104.813Y-64.065
X105.742Y-79.925
X106.585Y-60.324
X106.8Y-103.944
X106.854Y-64.25
X108.836Y-70.072
X108.929Y-115.922
X109.181Y-78.439
X109.329Y-109.81
X109.571Y-88.935
X110.933Y-78.439
X113.163Y-81.375
X113.268Y-102.899
X115.257Y-56.793
X115.605Y-104.029
X117.566Y-108.175
X117.69Y-111.775
X118.366Y-73.506
X119.024Y-67.404
X119.196Y-85.295
X119.658Y-74.845
X121.098Y-69.337
X121.277Y-101.662
X123.229Y-107.474
X126.228Y-96.36
X126.669Y-56.195
X127.437Y-69.865
X128.078Y-131.838
X128.361Y-64.717
X130.082Y-129.794
X131.434Y-96.36
X131.725Y-65.695
X132.436Y-90.522
X133.128Y-97.84
X134.091Y-57.412
X134.101Y-59.203
X135.603Y-78.449
X138.284Y-70.165
X138.299Y-60.128
X138.325Y-57.59
X138.711Y-75.95
X139.192Y-90.522
X139.58Y-120.67
X139.635Y-62.57
X139.756Y-122.645
X140.583Y-51.647
X140.981Y-101.662
X141.261Y-90.753
X141.528Y-67.145
X141.689Y-114.658
X142.332Y-56.305
X143.35Y-69.248
X143.894Y-62.189
X144.937Y-101.165
X145.822Y-97.157
X146.94Y-52.334
X147.15Y-110.844
X148.022Y-125.635
X148.846Y-129.649
X149.436Y-105.187
X149.672Y-86.671
X150.547Y-131.006
X151.559Y-126.657
X151.641Y-89.136
X153.423Y-123.867
X154.261Y-93.128
X154.619Y-122.464
X154.902Y-87.059
X156.365Y-129.99
X156.874Y-74.145
T2
X82.49Y-114.775
X85.42Y-103.775
X85.99Y-114.775
X88.92Y-103.775
X133.739Y-108.775
X137.239Y-108.775
X155.25Y-77.275
X158.75Y-77.275
T3
X154.455Y-55.38
X154.455Y-57.38
X156.955Y-55.38
X156.955Y-57.38
T4
X80.825Y-55.325
X80.825Y-59.325
X83.365Y-55.325
X83.365Y-59.325
X85.905Y-55.325
X85.905Y-59.325
X88.445Y-55.325
X88.445Y-59.325
X101.435Y-111.825
X101.435Y-114.365
X112.825Y-63.325
X115.365Y-63.325
X117.905Y-63.325
X120.445Y-63.325
X122.985Y-63.325
X125.525Y-63.325
X138.475Y-84.275
X146.075Y-84.275
T5
X114.065Y-94.056
X124.047Y-94.056
T6
X69.025Y-54.525
X69.025Y-59.025
X75.525Y-54.525
X75.525Y-59.025
X112.525Y-54.525
X112.525Y-59.025
X119.025Y-54.525
X119.025Y-59.025
T7
X55.735Y-72.075
X55.735Y-77.155
X55.735Y-84.075
X55.735Y-89.155
X158.265Y-111.065
X158.265Y-116.145
X158.265Y-121.225
T8
X55.225Y-134.725
X127.225Y-134.725
T9
X149.685Y-60.09
X161.725Y-60.09
T4
X58.025Y-57.86G85X58.025Y-59.86
G05
X60.025Y-63.56G85X62.025Y-63.56
G05
X64.025Y-57.86G85X64.025Y-59.86
G05
M30
