M48
; DRILL file {KiCad 7.0.11+dfsg-1build4} date Sun Sep 27 23:16:29 2026
; FORMAT={-:-/ absolute / metric / decimal}
; #@! TF.CreationDate,2026-09-27T23:16:29+00:00
; #@! TF.GenerationSoftware,Kicad,Pcbnew,7.0.11+dfsg-1build4
; #@! TF.FileFunction,Plated,1,2,PTH
FMAT,2
METRIC
; #@! TA.AperFunction,Plated,PTH,ViaDrill
T1C0.600
; #@! TA.AperFunction,Plated,PTH,ComponentDrill
T2C0.800
; #@! TA.AperFunction,Plated,PTH,ComponentDrill
T3C0.890
; #@! TA.AperFunction,Plated,PTH,ComponentDrill
T4C0.920
; #@! TA.AperFunction,Plated,PTH,ComponentDrill
T5C1.000
; #@! TA.AperFunction,Plated,PTH,ComponentDrill
T6C1.016
; #@! TA.AperFunction,Plated,PTH,ComponentDrill
T7C1.020
; #@! TA.AperFunction,Plated,PTH,ComponentDrill
T8C1.100
; #@! TA.AperFunction,Plated,PTH,ComponentDrill
T9C1.300
; #@! TA.AperFunction,Plated,PTH,ComponentDrill
T10C1.630
; #@! TA.AperFunction,Plated,PTH,ComponentDrill
T11C2.000
; #@! TA.AperFunction,Plated,PTH,ComponentDrill
T12C2.330
%
G90
G05
T1
X63.121Y-102.526
X64.85Y-128.38
X70.579Y-75.175
X72.583Y-69.975
X73.481Y-56.137
X75.653Y-65.841
X75.764Y-132.278
X75.897Y-139.917
X76.027Y-99.17
X76.729Y-86.189
X76.948Y-68.641
X77.728Y-55.381
X78.188Y-72.253
X78.197Y-91.925
X81.75Y-109.75
X82.846Y-96.023
X83.701Y-73.324
X84.245Y-86.189
X85.174Y-71.788
X86.285Y-67.527
X86.95Y-107.15
X87.543Y-73.243
X87.731Y-62.601
X88.14Y-121.361
X88.781Y-65.52
X89.306Y-97.55
X90.906Y-121.244
X91.146Y-106.957
X91.867Y-116.455
X92.226Y-84.522
X92.512Y-103.001
X92.522Y-92.173
X93.115Y-52.82
X93.128Y-60.44
X93.164Y-66.288
X93.248Y-64.015
X93.444Y-132.735
X93.906Y-87.033
X94.015Y-101.992
X94.247Y-61.916
X94.618Y-111.179
X94.891Y-56.734
X95.838Y-126.51
X96.397Y-102.447
X96.437Y-92.514
X96.462Y-87.464
X96.756Y-81.001
X97.222Y-104.304
X97.278Y-85.654
X98.236Y-80.073
X98.483Y-55.688
X98.813Y-102.59
X99.047Y-120.559
X99.277Y-75.875
X99.65Y-62.95
X100.139Y-94.721
X100.443Y-92.807
X100.492Y-87.591
X101.47Y-131.27
X101.5Y-116.507
X102.359Y-54.173
X102.377Y-103.225
X102.751Y-82.516
X103.122Y-112.833
X103.392Y-58.728
X104.013Y-126.377
X104.298Y-64.25
X104.781Y-138.168
X105.533Y-65.656
X105.72Y-67.409
X105.85Y-134.25
X105.871Y-72.554
X106.063Y-131.108
X106.155Y-100.599
X106.224Y-124.099
X106.511Y-126.089
X106.829Y-62.409
X106.895Y-56.63
X107.106Y-87.422
X108.236Y-71.367
X108.432Y-112.356
X108.784Y-101.977
X109.25Y-134.25
X109.418Y-69.929
X110.595Y-94.868
X110.608Y-55.36
X110.611Y-66.79
X110.768Y-52.51
X111.034Y-101.947
X111.794Y-71.655
X112.183Y-90.216
X112.437Y-55.446
X112.55Y-117.25
X114.253Y-87.852
X114.53Y-101.985
X114.637Y-67.222
X114.677Y-89.608
X116.374Y-63.194
X117.834Y-56.756
X118.03Y-86.755
X118.473Y-101.043
X119.767Y-61.049
X119.826Y-75.857
X119.951Y-103.869
X120.898Y-55.146
X122.112Y-103.999
X122.2Y-94.91
X122.87Y-65.829
X122.986Y-72.762
X123.319Y-63.382
X123.499Y-106.173
X126.011Y-56.789
X126.732Y-89.152
X127.658Y-53.156
X127.669Y-132.735
X127.808Y-119.275
X129.092Y-87.949
X129.377Y-52.841
X129.588Y-92.502
X130.008Y-65.134
X132.051Y-77.263
X133.306Y-67.581
X134.906Y-78.765
X135.682Y-90.504
X136.097Y-121.709
X136.519Y-95.468
X137.614Y-106.751
X137.874Y-110.913
X138.027Y-99.771
X138.291Y-55.255
X138.318Y-87.949
X139.384Y-74.179
X139.677Y-112.143
X140.124Y-64.087
X140.776Y-79.849
X141.397Y-115.114
X141.516Y-72.348
X141.865Y-133.358
X142.207Y-109.034
X142.582Y-110.764
X143.022Y-92.412
X143.034Y-84.463
X143.036Y-87.066
X143.374Y-102.947
X143.378Y-67.965
X144.418Y-94.753
X144.711Y-85.882
X144.965Y-110.953
X145.008Y-56.477
X145.335Y-68.553
X146.378Y-81.418
X146.84Y-74.436
X147.648Y-62.689
X147.691Y-116.283
X148.683Y-84.463
X148.691Y-78.288
X148.77Y-76.518
X149.729Y-99.863
X150.136Y-79.294
X150.162Y-92.412
X150.163Y-81.687
X150.201Y-97.198
X150.394Y-117.698
X150.601Y-94.753
X151.22Y-120.459
X151.723Y-71.068
X151.823Y-59.92
X152.192Y-112.309
X153.435Y-100.106
X153.752Y-93.583
X154.52Y-56.043
X154.908Y-69.278
X155.314Y-90.93
X155.624Y-109.209
X156.121Y-75.233
X156.487Y-127.051
X156.596Y-104.968
X156.895Y-93.373
X157.025Y-110.953
X157.208Y-90.795
X157.493Y-58.1
X157.536Y-78.56
X158.048Y-68.514
X158.079Y-86.56
X158.73Y-95.018
X158.894Y-72.465
X159.299Y-57.809
X159.412Y-84.097
X159.596Y-121.494
X161.395Y-115.404
X161.845Y-55.811
X162.021Y-120.143
X163.066Y-114.035
X163.877Y-79.125
X164.045Y-86.92
X164.325Y-134.13
X164.53Y-96.833
X165.315Y-82.597
X165.527Y-72.765
X167.235Y-82.607
X170.386Y-100.195
X170.704Y-75.968
X171.165Y-115.283
X171.516Y-95.691
X172.314Y-99.707
X172.517Y-88.375
X172.548Y-110.537
X172.738Y-108.29
X173.643Y-75.722
X174.082Y-93.142
X174.568Y-63.947
X174.705Y-90.435
X175.125Y-108.347
X176.104Y-114.501
X177.437Y-121.247
X177.535Y-106.239
X178.874Y-68.027
X178.96Y-75.06
X180.393Y-76.068
X181.318Y-91.483
X181.808Y-147.714
X182.478Y-66.663
X182.481Y-63.947
X182.794Y-105.281
X182.941Y-114.434
X185.659Y-51.138
X187.042Y-107.509
X189.075Y-69.445
T2
X85.42Y-114.064
X86.565Y-103.064
X88.92Y-114.064
X90.065Y-103.064
X106.22Y-78.328
X109.72Y-78.328
X116.63Y-110.933
X120.13Y-110.933
X154.625Y-98.457
X159.505Y-98.457
T3
X179.675Y-79.717
X179.675Y-82.257
X179.675Y-84.797
X179.675Y-87.337
X182.215Y-80.977
X182.215Y-83.517
X182.215Y-86.057
X182.215Y-88.597
T4
X190.455Y-55.38
X190.455Y-57.38
X192.955Y-55.38
X192.955Y-57.38
T5
X80.825Y-55.325
X80.825Y-59.325
X83.365Y-55.325
X83.365Y-59.325
X85.905Y-55.325
X85.905Y-59.325
X88.445Y-55.325
X88.445Y-59.325
X105.865Y-106.562
X105.865Y-109.102
X116.325Y-68.825
X118.865Y-68.825
X121.405Y-68.825
X123.945Y-68.825
X126.485Y-68.825
X129.025Y-68.825
X162.475Y-145.749
X170.075Y-145.749
T6
X114.065Y-96.583
X124.047Y-96.583
T7
X193.475Y-77.532
X193.475Y-80.072
X193.475Y-88.242
X193.475Y-90.782
T8
X69.025Y-54.525
X69.025Y-59.025
X75.525Y-54.525
X75.525Y-59.025
X117.525Y-54.525
X117.525Y-59.025
X124.025Y-54.525
X124.025Y-59.025
T9
X55.735Y-72.075
X55.735Y-77.155
X55.735Y-85.812
X55.735Y-90.892
X194.265Y-117.065
X194.265Y-122.145
X194.265Y-127.225
T10
X185.525Y-76.412
X185.525Y-91.902
T11
X55.225Y-146.725
X127.225Y-146.725
T12
X185.685Y-60.09
X197.725Y-60.09
T5
X58.025Y-57.86G85X58.025Y-59.86
G05
X60.025Y-63.56G85X62.025Y-63.56
G05
X64.025Y-57.86G85X64.025Y-59.86
G05
M30
