%TF.GenerationSoftware,KiCad,Pcbnew,7.0.11+dfsg-1build4*%
%TF.CreationDate,2026-09-27T23:16:29+00:00*%
%TF.ProjectId,agrinode_gw_lan,61677269-6e6f-4646-955f-67775f6c616e,rev?*%
%TF.SameCoordinates,Original*%
%TF.FileFunction,Legend,Bot*%
%TF.FilePolarity,Positive*%
%FSLAX46Y46*%
G04 Gerber Fmt 4.6, Leading zero omitted, Abs format (unit mm)*
G04 Created by KiCad (PCBNEW 7.0.11+dfsg-1build4) date 2026-09-27 23:16:29*
%MOMM*%
%LPD*%
G01*
G04 APERTURE LIST*
G04 Aperture macros list*
%AMRoundRect*
0 Rectangle with rounded corners*
0 $1 Rounding radius*
0 $2 $3 $4 $5 $6 $7 $8 $9 X,Y pos of 4 corners*
0 Add a 4 corners polygon primitive as box body*
4,1,4,$2,$3,$4,$5,$6,$7,$8,$9,$2,$3,0*
0 Add four circle primitives for the rounded corners*
1,1,$1+$1,$2,$3*
1,1,$1+$1,$4,$5*
1,1,$1+$1,$6,$7*
1,1,$1+$1,$8,$9*
0 Add four rect primitives between the rounded corners*
20,1,$1+$1,$2,$3,$4,$5,0*
20,1,$1+$1,$4,$5,$6,$7,0*
20,1,$1+$1,$6,$7,$8,$9,0*
20,1,$1+$1,$8,$9,$2,$3,0*%
G04 Aperture macros list end*
%ADD10R,1.600000X1.600000*%
%ADD11C,1.600000*%
%ADD12R,1.700000X1.700000*%
%ADD13O,1.700000X1.700000*%
%ADD14C,1.440000*%
%ADD15C,3.500000*%
%ADD16C,3.200000*%
%ADD17R,3.500000X3.500000*%
%ADD18RoundRect,0.750000X-0.750000X-1.000000X0.750000X-1.000000X0.750000X1.000000X-0.750000X1.000000X0*%
%ADD19RoundRect,0.875000X-0.875000X-0.875000X0.875000X-0.875000X0.875000X0.875000X-0.875000X0.875000X0*%
%ADD20R,2.600000X2.600000*%
%ADD21C,2.600000*%
%ADD22C,2.000000*%
%ADD23C,3.250000*%
%ADD24RoundRect,0.250500X0.499500X-0.499500X0.499500X0.499500X-0.499500X0.499500X-0.499500X-0.499500X0*%
%ADD25C,1.500000*%
%ADD26C,1.540000*%
%ADD27C,2.500000*%
%ADD28R,2.540000X2.540000*%
%ADD29C,2.540000*%
%ADD30R,2.000000X2.000000*%
G04 APERTURE END LIST*
%LPC*%
D10*
%TO.C,C8*%
X116629697Y-110932894D03*
D11*
X120129697Y-110932894D03*
%TD*%
D12*
%TO.C,J5*%
X105864698Y-106561842D03*
D13*
X105864698Y-109101842D03*
%TD*%
D14*
%TO.C,J4*%
X192954999Y-55380000D03*
X190454999Y-55380000D03*
X190454999Y-57380000D03*
X192954999Y-57380000D03*
D15*
X197724999Y-60090000D03*
X185684999Y-60090000D03*
%TD*%
D10*
%TO.C,C1*%
X86564698Y-103064473D03*
D11*
X90064698Y-103064473D03*
%TD*%
D12*
%TO.C,J8*%
X80825000Y-55325000D03*
D13*
X83365000Y-55325000D03*
X85905000Y-55325000D03*
X88445000Y-55325000D03*
%TD*%
D16*
%TO.C,BT1*%
X63870000Y-146725000D03*
X119480000Y-146725000D03*
D17*
X55225000Y-146725000D03*
D15*
X127225000Y-146725000D03*
%TD*%
D17*
%TO.C,J1*%
X64025000Y-58860000D03*
D18*
X58025000Y-58860000D03*
D19*
X61025000Y-63560000D03*
%TD*%
D20*
%TO.C,J3*%
X55735000Y-90891842D03*
D21*
X55735000Y-85811842D03*
%TD*%
D10*
%TO.C,C3*%
X85419698Y-114064473D03*
D11*
X88919698Y-114064473D03*
%TD*%
D16*
%TO.C,H4*%
X136000000Y-154000000D03*
%TD*%
%TO.C,H3*%
X196000000Y-154000000D03*
%TD*%
D22*
%TO.C,SW2*%
X117525000Y-54525000D03*
X124025000Y-54525000D03*
X117525000Y-59025000D03*
X124025000Y-59025000D03*
%TD*%
D10*
%TO.C,C10*%
X106219698Y-78327631D03*
D11*
X109719698Y-78327631D03*
%TD*%
D12*
%TO.C,J6*%
X116325000Y-68825000D03*
D13*
X118865000Y-68825000D03*
X121405000Y-68825000D03*
X123945000Y-68825000D03*
X126485000Y-68825000D03*
X129025000Y-68825000D03*
%TD*%
D16*
%TO.C,H2*%
X196000000Y-105894736D03*
%TD*%
%TO.C,H1*%
X55000000Y-124421052D03*
%TD*%
D12*
%TO.C,J7*%
X80825000Y-59325000D03*
D13*
X83365000Y-59325000D03*
X85905000Y-59325000D03*
X88445000Y-59325000D03*
%TD*%
D20*
%TO.C,J9*%
X194265000Y-117065000D03*
D21*
X194265000Y-122145000D03*
X194265000Y-127225000D03*
%TD*%
D22*
%TO.C,SW1*%
X69025000Y-54525000D03*
X75525000Y-54525000D03*
X69025000Y-59025000D03*
X75525000Y-59025000D03*
%TD*%
D23*
%TO.C,J10*%
X188575000Y-89871578D03*
X188575000Y-78441578D03*
D24*
X182215000Y-88596578D03*
D25*
X179675000Y-87336578D03*
X182215000Y-86056578D03*
X179675000Y-84796578D03*
X182215000Y-83516578D03*
X179675000Y-82256578D03*
X182215000Y-80976578D03*
X179675000Y-79716578D03*
D26*
X193475000Y-90781578D03*
X193475000Y-88241578D03*
X193475000Y-80071578D03*
X193475000Y-77531578D03*
D27*
X185525000Y-91901578D03*
X185525000Y-76411578D03*
%TD*%
D25*
%TO.C,Y1*%
X154625000Y-98456578D03*
X159505000Y-98456578D03*
%TD*%
D28*
%TO.C,BT2*%
X114065000Y-96582791D03*
D29*
X124047200Y-96582791D03*
%TD*%
D30*
%TO.C,BZ1*%
X162475000Y-145748684D03*
D22*
X170075000Y-145748684D03*
%TD*%
D20*
%TO.C,J2*%
X55735000Y-77155000D03*
D21*
X55735000Y-72075000D03*
%TD*%
%LPD*%
M02*
