M48
; DRILL file {KiCad 7.0.11+dfsg-1build4} date Sun Sep 27 23:03:21 2026
; FORMAT={-:-/ absolute / metric / decimal}
; #@! TF.CreationDate,2026-09-27T23:03:21+00:00
; #@! TF.GenerationSoftware,Kicad,Pcbnew,7.0.11+dfsg-1build4
; #@! TF.FileFunction,Plated,1,2,PTH
FMAT,2
METRIC
; #@! TA.AperFunction,Plated,PTH,ViaDrill
T1C0.600
; #@! TA.AperFunction,Plated,PTH,ComponentDrill
T2C0.800
; #@! TA.AperFunction,Plated,PTH,ComponentDrill
T3C0.920
; #@! TA.AperFunction,Plated,PTH,ComponentDrill
T4C1.000
; #@! TA.AperFunction,Plated,PTH,ComponentDrill
T5C1.016
; #@! TA.AperFunction,Plated,PTH,ComponentDrill
T6C1.100
; #@! TA.AperFunction,Plated,PTH,ComponentDrill
T7C1.300
; #@! TA.AperFunction,Plated,PTH,ComponentDrill
T8C2.000
; #@! TA.AperFunction,Plated,PTH,ComponentDrill
T9C2.330
%
G90
G05
T1
X70.525Y-72.913
X71.667Y-128.346
X74.746Y-96.701
X76.101Y-67.256
X78.177Y-72.26
X79.981Y-92.189
X81.578Y-104.809
X82.462Y-93.532
X82.548Y-73.095
X82.688Y-82.706
X83.148Y-79.626
X83.882Y-87.651
X85.031Y-62.625
X86.11Y-67.651
X86.122Y-80.152
X86.781Y-83.329
X87.375Y-92.25
X87.735Y-62.198
X89.151Y-63.19
X90.593Y-104.977
X91.956Y-125.104
X93.708Y-106.957
X94.21Y-61.856
X95.544Y-71.506
X95.721Y-58.127
X95.795Y-77.992
X96.398Y-63.208
X97.304Y-85.961
X97.334Y-82.13
X97.39Y-93.103
X98.115Y-104.493
X98.329Y-54.59
X98.822Y-110.789
X98.893Y-101.39
X99.312Y-64.911
X99.487Y-115.328
X99.811Y-125.776
X99.82Y-122.764
X99.869Y-129.682
X102.552Y-104.664
X103.824Y-110.831
X104.167Y-130.36
X104.668Y-67.426
X105.89Y-112.916
X106.837Y-61.71
X106.88Y-64.25
X107.624Y-92.876
X108.924Y-69.588
X109.379Y-73.773
X110.608Y-58.222
X111.865Y-102.14
X112.013Y-86.73
X112.028Y-60.44
X112.099Y-56.774
X112.275Y-79.463
X112.863Y-121.661
X113.027Y-67.892
X113.481Y-100.645
X113.774Y-65.208
X118.38Y-109.219
X120.246Y-72.746
X124.663Y-89.263
X125.184Y-104.244
X129.082Y-57.6
X129.345Y-104.244
X130.535Y-93.24
X131.028Y-102.14
X132.561Y-89.263
X132.623Y-104.719
X133.305Y-67.613
X133.367Y-53.415
X133.412Y-116.321
X133.537Y-60.13
X133.825Y-86.516
X134.089Y-57.738
X134.931Y-85.216
X136.195Y-128.983
X136.431Y-122.099
X137.771Y-115.443
X138.182Y-108.803
X138.403Y-60.224
X140.807Y-94.394
X140.932Y-67.6
X141.328Y-104.033
X141.743Y-60.119
X141.95Y-64.094
X142.614Y-78.842
X142.679Y-107.894
X143.058Y-56.227
X144.377Y-125.072
X144.795Y-75.738
X145.057Y-70.24
X145.374Y-130.097
X145.471Y-115.444
X145.569Y-94.268
X147.023Y-102.607
X147.35Y-72.245
X147.94Y-122.181
X148.094Y-120.382
X148.386Y-60.129
X149.882Y-117.777
X149.918Y-77.304
X151.557Y-55.223
X151.575Y-58.884
X151.659Y-124.726
X154.328Y-68.144
X154.496Y-59.815
X155.994Y-90.193
X156.541Y-62.018
X156.614Y-131.005
X156.778Y-121.019
X156.799Y-88.133
X159.128Y-127.716
X160.399Y-109.973
X161.444Y-88.133
X161.778Y-55.778
X164.182Y-99.277
X165.579Y-116.572
X166.734Y-94.604
X166.825Y-120.641
X167.002Y-103.453
X169.403Y-112.618
T2
X85.42Y-114.064
X86.565Y-103.064
X88.92Y-114.064
X90.065Y-103.064
X106.22Y-78.328
X109.72Y-78.328
X116.63Y-110.933
X120.13Y-110.933
X153.72Y-105.407
X157.22Y-105.407
T3
X170.455Y-55.38
X170.455Y-57.38
X172.955Y-55.38
X172.955Y-57.38
T4
X80.825Y-55.325
X80.825Y-59.325
X83.365Y-55.325
X83.365Y-59.325
X85.905Y-55.325
X85.905Y-59.325
X88.445Y-55.325
X88.445Y-59.325
X105.865Y-106.562
X105.865Y-109.102
X116.325Y-68.825
X118.865Y-68.825
X121.405Y-68.825
X123.945Y-68.825
X126.485Y-68.825
X129.025Y-68.825
X138.475Y-85.538
X146.075Y-85.538
X154.04Y-93.407
X159.04Y-93.407
X175.175Y-78.772
X175.175Y-81.312
X175.175Y-83.852
X175.175Y-86.392
X175.175Y-88.932
X175.175Y-91.472
X175.175Y-94.012
X175.175Y-96.552
T5
X114.065Y-96.583
X124.047Y-96.583
T6
X69.025Y-54.525
X69.025Y-59.025
X75.525Y-54.525
X75.525Y-59.025
X117.525Y-54.525
X117.525Y-59.025
X124.025Y-54.525
X124.025Y-59.025
T7
X55.735Y-72.075
X55.735Y-77.155
X55.735Y-85.812
X55.735Y-90.892
X174.265Y-117.065
X174.265Y-122.145
X174.265Y-127.225
T8
X55.225Y-146.725
X127.225Y-146.725
T9
X165.685Y-60.09
X177.725Y-60.09
T4
X58.025Y-57.86G85X58.025Y-59.86
G05
X60.025Y-63.56G85X62.025Y-63.56
G05
X64.025Y-57.86G85X64.025Y-59.86
G05
M30
