%TF.GenerationSoftware,KiCad,Pcbnew,7.0.11+dfsg-1build4*%
%TF.CreationDate,2026-09-27T23:03:20+00:00*%
%TF.ProjectId,agrinode_hub_c,61677269-6e6f-4646-955f-6875625f632e,rev?*%
%TF.SameCoordinates,Original*%
%TF.FileFunction,Soldermask,Top*%
%TF.FilePolarity,Negative*%
%FSLAX46Y46*%
G04 Gerber Fmt 4.6, Leading zero omitted, Abs format (unit mm)*
G04 Created by KiCad (PCBNEW 7.0.11+dfsg-1build4) date 2026-09-27 23:03:20*
%MOMM*%
%LPD*%
G01*
G04 APERTURE LIST*
G04 Aperture macros list*
%AMRoundRect*
0 Rectangle with rounded corners*
0 $1 Rounding radius*
0 $2 $3 $4 $5 $6 $7 $8 $9 X,Y pos of 4 corners*
0 Add a 4 corners polygon primitive as box body*
4,1,4,$2,$3,$4,$5,$6,$7,$8,$9,$2,$3,0*
0 Add four circle primitives for the rounded corners*
1,1,$1+$1,$2,$3*
1,1,$1+$1,$4,$5*
1,1,$1+$1,$6,$7*
1,1,$1+$1,$8,$9*
0 Add four rect primitives between the rounded corners*
20,1,$1+$1,$2,$3,$4,$5,0*
20,1,$1+$1,$4,$5,$6,$7,0*
20,1,$1+$1,$6,$7,$8,$9,0*
20,1,$1+$1,$8,$9,$2,$3,0*%
G04 Aperture macros list end*
%ADD10C,3.200000*%
%ADD11R,3.500000X3.500000*%
%ADD12C,3.500000*%
%ADD13RoundRect,0.150000X-0.587500X-0.150000X0.587500X-0.150000X0.587500X0.150000X-0.587500X0.150000X0*%
%ADD14RoundRect,0.250000X1.000000X-1.400000X1.000000X1.400000X-1.000000X1.400000X-1.000000X-1.400000X0*%
%ADD15RoundRect,0.250000X-1.000000X-0.650000X1.000000X-0.650000X1.000000X0.650000X-1.000000X0.650000X0*%
%ADD16RoundRect,0.250000X-0.312500X-0.625000X0.312500X-0.625000X0.312500X0.625000X-0.312500X0.625000X0*%
%ADD17RoundRect,0.250000X-0.325000X-0.650000X0.325000X-0.650000X0.325000X0.650000X-0.325000X0.650000X0*%
%ADD18R,2.900000X5.400000*%
%ADD19R,2.600000X2.600000*%
%ADD20C,2.600000*%
%ADD21C,2.000000*%
%ADD22RoundRect,0.150000X0.825000X0.150000X-0.825000X0.150000X-0.825000X-0.150000X0.825000X-0.150000X0*%
%ADD23R,1.700000X1.700000*%
%ADD24O,1.700000X1.700000*%
%ADD25RoundRect,0.225000X-0.225000X-0.375000X0.225000X-0.375000X0.225000X0.375000X-0.225000X0.375000X0*%
%ADD26R,1.600000X1.600000*%
%ADD27C,1.600000*%
%ADD28R,2.000000X2.000000*%
%ADD29RoundRect,0.250000X-1.000000X-0.900000X1.000000X-0.900000X1.000000X0.900000X-1.000000X0.900000X0*%
%ADD30RoundRect,0.250000X-0.312500X-1.450000X0.312500X-1.450000X0.312500X1.450000X-0.312500X1.450000X0*%
%ADD31C,1.440000*%
%ADD32RoundRect,0.250000X-2.050000X-0.300000X2.050000X-0.300000X2.050000X0.300000X-2.050000X0.300000X0*%
%ADD33RoundRect,0.250002X-4.449998X-5.149998X4.449998X-5.149998X4.449998X5.149998X-4.449998X5.149998X0*%
%ADD34RoundRect,0.150000X-0.825000X-0.150000X0.825000X-0.150000X0.825000X0.150000X-0.825000X0.150000X0*%
%ADD35RoundRect,0.750000X-0.750000X-1.000000X0.750000X-1.000000X0.750000X1.000000X-0.750000X1.000000X0*%
%ADD36RoundRect,0.875000X-0.875000X-0.875000X0.875000X-0.875000X0.875000X0.875000X-0.875000X0.875000X0*%
%ADD37R,2.540000X2.540000*%
%ADD38C,2.540000*%
%ADD39R,1.500000X0.700000*%
%ADD40R,0.700000X1.500000*%
%ADD41R,4.200000X4.200000*%
%ADD42R,1.900000X2.600000*%
G04 APERTURE END LIST*
D10*
%TO.C,BT1*%
X63870000Y-146725000D03*
X119480000Y-146725000D03*
D11*
X55225000Y-146725000D03*
D12*
X127225000Y-146725000D03*
%TD*%
D13*
%TO.C,Q6*%
X144457499Y-104213157D03*
X144457499Y-106113157D03*
X146332499Y-105163157D03*
%TD*%
D10*
%TO.C,H1*%
X55000000Y-124421052D03*
%TD*%
D14*
%TO.C,D2*%
X65570000Y-90690789D03*
X72370000Y-90690789D03*
%TD*%
D15*
%TO.C,D8*%
X102865000Y-94932894D03*
X106865000Y-94932894D03*
%TD*%
D16*
%TO.C,R34*%
X158452500Y-116276578D03*
X161377500Y-116276578D03*
%TD*%
D17*
%TO.C,C15*%
X97500000Y-73490789D03*
X100450000Y-73490789D03*
%TD*%
D10*
%TO.C,H2*%
X176000000Y-105894736D03*
%TD*%
D16*
%TO.C,R31*%
X129842500Y-131934473D03*
X132767500Y-131934473D03*
%TD*%
D14*
%TO.C,D1*%
X73220000Y-81690789D03*
X80020000Y-81690789D03*
%TD*%
D16*
%TO.C,R41*%
X151842500Y-131276578D03*
X154767500Y-131276578D03*
%TD*%
%TO.C,R1*%
X108142499Y-114381842D03*
X111067499Y-114381842D03*
%TD*%
D17*
%TO.C,C2*%
X64850000Y-130464473D03*
X67800000Y-130464473D03*
%TD*%
%TO.C,C20*%
X65850000Y-75175000D03*
X68800000Y-75175000D03*
%TD*%
D16*
%TO.C,R37*%
X151842500Y-122276578D03*
X154767500Y-122276578D03*
%TD*%
%TO.C,R11*%
X95527500Y-94960789D03*
X98452500Y-94960789D03*
%TD*%
D18*
%TO.C,L1*%
X65934999Y-120414473D03*
X75834999Y-120414473D03*
%TD*%
D16*
%TO.C,R30*%
X132107197Y-112934473D03*
X135032197Y-112934473D03*
%TD*%
D13*
%TO.C,Q2*%
X95597197Y-99107894D03*
X95597197Y-101007894D03*
X97472197Y-100057894D03*
%TD*%
D17*
%TO.C,C17*%
X70850000Y-64175000D03*
X73800000Y-64175000D03*
%TD*%
D13*
%TO.C,Q4*%
X148007500Y-65450000D03*
X148007500Y-67350000D03*
X149882500Y-66400000D03*
%TD*%
D17*
%TO.C,C5*%
X78150000Y-130964473D03*
X81100000Y-130964473D03*
%TD*%
D19*
%TO.C,J9*%
X174265000Y-117065000D03*
D20*
X174265000Y-122145000D03*
X174265000Y-127225000D03*
%TD*%
D21*
%TO.C,SW1*%
X69025000Y-54525000D03*
X75525000Y-54525000D03*
X69025000Y-59025000D03*
X75525000Y-59025000D03*
%TD*%
D22*
%TO.C,U5*%
X136200000Y-62670000D03*
X136200000Y-61400000D03*
X136200000Y-60130000D03*
X136200000Y-58860000D03*
X136200000Y-57590000D03*
X136200000Y-56320000D03*
X136200000Y-55050000D03*
X136200000Y-53780000D03*
X131250000Y-53780000D03*
X131250000Y-55050000D03*
X131250000Y-56320000D03*
X131250000Y-57590000D03*
X131250000Y-58860000D03*
X131250000Y-60130000D03*
X131250000Y-61400000D03*
X131250000Y-62670000D03*
%TD*%
D16*
%TO.C,R16*%
X153552499Y-54145000D03*
X156477499Y-54145000D03*
%TD*%
D17*
%TO.C,C18*%
X140299999Y-54175000D03*
X143249999Y-54175000D03*
%TD*%
D16*
%TO.C,R21*%
X132147197Y-108171315D03*
X135072197Y-108171315D03*
%TD*%
%TO.C,R20*%
X142342500Y-66145000D03*
X145267500Y-66145000D03*
%TD*%
D17*
%TO.C,C16*%
X90850000Y-77990789D03*
X93800000Y-77990789D03*
%TD*%
D23*
%TO.C,J10*%
X175175000Y-78772368D03*
D24*
X175175000Y-81312368D03*
X175175000Y-83852368D03*
X175175000Y-86392368D03*
X175175000Y-88932368D03*
X175175000Y-91472368D03*
X175175000Y-94012368D03*
X175175000Y-96552368D03*
%TD*%
D10*
%TO.C,H3*%
X176000000Y-154000000D03*
%TD*%
D25*
%TO.C,D9*%
X144220000Y-95438157D03*
X147520000Y-95438157D03*
%TD*%
D16*
%TO.C,R40*%
X158452500Y-129776578D03*
X161377500Y-129776578D03*
%TD*%
%TO.C,R38*%
X158452500Y-125276578D03*
X161377500Y-125276578D03*
%TD*%
D26*
%TO.C,C24*%
X153719698Y-105406578D03*
D27*
X157219698Y-105406578D03*
%TD*%
D21*
%TO.C,SW2*%
X117525000Y-54525000D03*
X124025000Y-54525000D03*
X117525000Y-59025000D03*
X124025000Y-59025000D03*
%TD*%
D23*
%TO.C,J5*%
X105864698Y-106561842D03*
D24*
X105864698Y-109101842D03*
%TD*%
D28*
%TO.C,C22*%
X154039646Y-93406578D03*
D21*
X159039646Y-93406578D03*
%TD*%
D23*
%TO.C,J6*%
X116325000Y-68825000D03*
D24*
X118865000Y-68825000D03*
X121405000Y-68825000D03*
X123945000Y-68825000D03*
X126485000Y-68825000D03*
X129025000Y-68825000D03*
%TD*%
D16*
%TO.C,R25*%
X79102500Y-75145000D03*
X82027500Y-75145000D03*
%TD*%
D13*
%TO.C,Q5*%
X78957500Y-68950000D03*
X78957500Y-70850000D03*
X80832500Y-69900000D03*
%TD*%
D16*
%TO.C,R23*%
X84682500Y-69145000D03*
X87607500Y-69145000D03*
%TD*%
D17*
%TO.C,C7*%
X101500000Y-114411842D03*
X104450000Y-114411842D03*
%TD*%
%TO.C,C6*%
X94850000Y-113911842D03*
X97800000Y-113911842D03*
%TD*%
D13*
%TO.C,Q8*%
X164822146Y-95081578D03*
X164822146Y-96981578D03*
X166697146Y-96031578D03*
%TD*%
D29*
%TO.C,D3*%
X77465000Y-89590789D03*
X81765000Y-89590789D03*
%TD*%
D13*
%TO.C,Q1*%
X101767497Y-127950000D03*
X101767497Y-129850000D03*
X103642497Y-128900000D03*
%TD*%
D30*
%TO.C,F2*%
X63697500Y-80790789D03*
X67972500Y-80790789D03*
%TD*%
%TO.C,F5*%
X70837500Y-69975000D03*
X75112500Y-69975000D03*
%TD*%
%TO.C,F1*%
X84382500Y-83290789D03*
X88657500Y-83290789D03*
%TD*%
D16*
%TO.C,R39*%
X151842500Y-126776578D03*
X154767500Y-126776578D03*
%TD*%
%TO.C,JP1*%
X101602498Y-123381842D03*
X104527498Y-123381842D03*
%TD*%
%TO.C,R26*%
X144292500Y-99908157D03*
X147217500Y-99908157D03*
%TD*%
%TO.C,R24*%
X72492500Y-75145000D03*
X75417500Y-75145000D03*
%TD*%
D23*
%TO.C,J7*%
X80825000Y-59325000D03*
D24*
X83365000Y-59325000D03*
X85905000Y-59325000D03*
X88445000Y-59325000D03*
%TD*%
D16*
%TO.C,JP2*%
X134842500Y-127434473D03*
X137767500Y-127434473D03*
%TD*%
D26*
%TO.C,C8*%
X116629697Y-110932894D03*
D27*
X120129697Y-110932894D03*
%TD*%
D19*
%TO.C,J3*%
X55735000Y-90891842D03*
D20*
X55735000Y-85811842D03*
%TD*%
D16*
%TO.C,R27*%
X153732500Y-70408157D03*
X156657500Y-70408157D03*
%TD*%
D17*
%TO.C,C12*%
X92345000Y-82490789D03*
X95295000Y-82490789D03*
%TD*%
D28*
%TO.C,BZ1*%
X138475000Y-85538157D03*
D21*
X146075000Y-85538157D03*
%TD*%
D29*
%TO.C,D4*%
X86860000Y-89590789D03*
X91160000Y-89590789D03*
%TD*%
D16*
%TO.C,R35*%
X151842500Y-117776578D03*
X154767500Y-117776578D03*
%TD*%
%TO.C,R28*%
X140732500Y-122934473D03*
X143657500Y-122934473D03*
%TD*%
D13*
%TO.C,D10*%
X135007500Y-118239473D03*
X135007500Y-120139473D03*
X136882500Y-119189473D03*
%TD*%
%TO.C,Q3*%
X137507500Y-65450000D03*
X137507500Y-67350000D03*
X139382500Y-66400000D03*
%TD*%
D17*
%TO.C,C21*%
X140739999Y-118464473D03*
X143689999Y-118464473D03*
%TD*%
D16*
%TO.C,R22*%
X125497197Y-112671315D03*
X128422197Y-112671315D03*
%TD*%
D17*
%TO.C,C19*%
X125504697Y-108201315D03*
X128454697Y-108201315D03*
%TD*%
%TO.C,C11*%
X133700000Y-71306578D03*
X136650000Y-71306578D03*
%TD*%
%TO.C,C4*%
X71500000Y-130464473D03*
X74450000Y-130464473D03*
%TD*%
D30*
%TO.C,F4*%
X108207498Y-124475000D03*
X112482498Y-124475000D03*
%TD*%
D17*
%TO.C,C14*%
X90850000Y-73490789D03*
X93800000Y-73490789D03*
%TD*%
%TO.C,C9*%
X105604999Y-85806578D03*
X108554999Y-85806578D03*
%TD*%
D31*
%TO.C,J4*%
X172954999Y-55380000D03*
X170454999Y-55380000D03*
X170454999Y-57380000D03*
X172954999Y-57380000D03*
D12*
X177724999Y-60090000D03*
X165684999Y-60090000D03*
%TD*%
D23*
%TO.C,J8*%
X80825000Y-55325000D03*
D24*
X83365000Y-55325000D03*
X85905000Y-55325000D03*
X88445000Y-55325000D03*
%TD*%
D32*
%TO.C,U1*%
X66575000Y-102564473D03*
X66575000Y-104264473D03*
X66575000Y-105964473D03*
D33*
X75725000Y-105964473D03*
D32*
X66575000Y-107664473D03*
X66575000Y-109364473D03*
%TD*%
D26*
%TO.C,C1*%
X86564698Y-103064473D03*
D27*
X90064698Y-103064473D03*
%TD*%
D14*
%TO.C,D5*%
X81339999Y-124164473D03*
X88139999Y-124164473D03*
%TD*%
D16*
%TO.C,R12*%
X84687500Y-95460789D03*
X87612500Y-95460789D03*
%TD*%
D22*
%TO.C,U6*%
X140200000Y-101261578D03*
X140200000Y-99991578D03*
X140200000Y-98721578D03*
X140200000Y-97451578D03*
X135250000Y-97451578D03*
X135250000Y-98721578D03*
X135250000Y-99991578D03*
X135250000Y-101261578D03*
%TD*%
D16*
%TO.C,R2*%
X101602498Y-118881842D03*
X104527498Y-118881842D03*
%TD*%
D34*
%TO.C,U7*%
X139164696Y-110239473D03*
X139164696Y-111509473D03*
X139164696Y-112779473D03*
X139164696Y-114049473D03*
X144114696Y-114049473D03*
X144114696Y-112779473D03*
X144114696Y-111509473D03*
X144114696Y-110239473D03*
%TD*%
D16*
%TO.C,R6*%
X133542500Y-75776578D03*
X136467500Y-75776578D03*
%TD*%
D15*
%TO.C,D7*%
X93234998Y-128564473D03*
X97234998Y-128564473D03*
%TD*%
D16*
%TO.C,R15*%
X146942499Y-54145000D03*
X149867499Y-54145000D03*
%TD*%
D26*
%TO.C,C3*%
X85419698Y-114064473D03*
D27*
X88919698Y-114064473D03*
%TD*%
D16*
%TO.C,R19*%
X131842500Y-66145000D03*
X134767500Y-66145000D03*
%TD*%
%TO.C,R32*%
X162587198Y-111776578D03*
X165512198Y-111776578D03*
%TD*%
%TO.C,R14*%
X84102500Y-64645000D03*
X87027500Y-64645000D03*
%TD*%
D13*
%TO.C,Q9*%
X164822146Y-101081578D03*
X164822146Y-102981578D03*
X166697146Y-102031578D03*
%TD*%
D10*
%TO.C,H4*%
X136000000Y-154000000D03*
%TD*%
D13*
%TO.C,Q7*%
X164822146Y-89081578D03*
X164822146Y-90981578D03*
X166697146Y-90031578D03*
%TD*%
D11*
%TO.C,J1*%
X64025000Y-58860000D03*
D35*
X58025000Y-58860000D03*
D36*
X61025000Y-63560000D03*
%TD*%
D16*
%TO.C,R36*%
X158452500Y-120776578D03*
X161377500Y-120776578D03*
%TD*%
D30*
%TO.C,F3*%
X76732500Y-96290789D03*
X81007500Y-96290789D03*
%TD*%
D16*
%TO.C,R18*%
X146902500Y-58645000D03*
X149827500Y-58645000D03*
%TD*%
%TO.C,R13*%
X77492500Y-64645000D03*
X80417500Y-64645000D03*
%TD*%
D17*
%TO.C,C23*%
X162594698Y-107306578D03*
X165544698Y-107306578D03*
%TD*%
D19*
%TO.C,J2*%
X55735000Y-77155000D03*
D20*
X55735000Y-72075000D03*
%TD*%
D16*
%TO.C,R7*%
X140152500Y-75776578D03*
X143077500Y-75776578D03*
%TD*%
%TO.C,R10*%
X95527500Y-90460789D03*
X98452500Y-90460789D03*
%TD*%
%TO.C,R3*%
X108212497Y-118881842D03*
X111137497Y-118881842D03*
%TD*%
%TO.C,R5*%
X101322197Y-100302894D03*
X104247197Y-100302894D03*
%TD*%
%TO.C,R4*%
X107492496Y-129645000D03*
X110417496Y-129645000D03*
%TD*%
D17*
%TO.C,C13*%
X97500000Y-77990789D03*
X100450000Y-77990789D03*
%TD*%
D16*
%TO.C,R29*%
X141452500Y-127434473D03*
X144377500Y-127434473D03*
%TD*%
D32*
%TO.C,U8*%
X153575000Y-76906578D03*
X153575000Y-78606578D03*
X153575000Y-80306578D03*
D33*
X162725000Y-80306578D03*
D32*
X153575000Y-82006578D03*
X153575000Y-83706578D03*
%TD*%
D16*
%TO.C,R9*%
X98987499Y-85960789D03*
X101912499Y-85960789D03*
%TD*%
%TO.C,R8*%
X112342500Y-63776578D03*
X115267500Y-63776578D03*
%TD*%
D37*
%TO.C,BT2*%
X114065000Y-96582791D03*
D38*
X124047200Y-96582791D03*
%TD*%
D32*
%TO.C,U3*%
X116575000Y-76906578D03*
X116575000Y-78606578D03*
X116575000Y-80306578D03*
D33*
X125725000Y-80306578D03*
D32*
X116575000Y-82006578D03*
X116575000Y-83706578D03*
%TD*%
D26*
%TO.C,C10*%
X106219698Y-78327631D03*
D27*
X109719698Y-78327631D03*
%TD*%
D39*
%TO.C,U4*%
X91250000Y-51550000D03*
X91250000Y-52820000D03*
X91250000Y-54090000D03*
X91250000Y-55360000D03*
X91250000Y-56630000D03*
X91250000Y-57900000D03*
X91250000Y-59170000D03*
X91250000Y-60440000D03*
X91250000Y-61710000D03*
X91250000Y-62980000D03*
X91250000Y-64250000D03*
X91250000Y-65520000D03*
X91250000Y-66790000D03*
X91250000Y-68060000D03*
D40*
X94290000Y-69310000D03*
X95560000Y-69310000D03*
X96830000Y-69310000D03*
X98100000Y-69310000D03*
X99370000Y-69310000D03*
X100640000Y-69310000D03*
X101910000Y-69310000D03*
X103180000Y-69310000D03*
X104450000Y-69310000D03*
X105720000Y-69310000D03*
D39*
X108750000Y-68060000D03*
X108750000Y-66790000D03*
X108750000Y-65520000D03*
X108750000Y-64250000D03*
X108750000Y-62980000D03*
X108750000Y-61710000D03*
X108750000Y-60440000D03*
X108750000Y-59170000D03*
X108750000Y-57900000D03*
X108750000Y-56630000D03*
X108750000Y-55360000D03*
X108750000Y-54090000D03*
X108750000Y-52820000D03*
X108750000Y-51550000D03*
D41*
X99320000Y-58890000D03*
%TD*%
D15*
%TO.C,D6*%
X93234998Y-122564473D03*
X97234998Y-122564473D03*
%TD*%
D16*
%TO.C,R17*%
X140292500Y-58645000D03*
X143217500Y-58645000D03*
%TD*%
%TO.C,R33*%
X151842500Y-113276578D03*
X154767500Y-113276578D03*
%TD*%
D34*
%TO.C,U2*%
X95839698Y-105686842D03*
X95839698Y-106956842D03*
X95839698Y-108226842D03*
X95839698Y-109496842D03*
X100789698Y-109496842D03*
X100789698Y-108226842D03*
X100789698Y-106956842D03*
X100789698Y-105686842D03*
D42*
X98314698Y-107591842D03*
%TD*%
M02*
