%TF.GenerationSoftware,KiCad,Pcbnew,7.0.11+dfsg-1build4*%
%TF.CreationDate,2026-09-27T23:03:20+00:00*%
%TF.ProjectId,agrinode_hub_c,61677269-6e6f-4646-955f-6875625f632e,rev?*%
%TF.SameCoordinates,Original*%
%TF.FileFunction,Legend,Bot*%
%TF.FilePolarity,Positive*%
%FSLAX46Y46*%
G04 Gerber Fmt 4.6, Leading zero omitted, Abs format (unit mm)*
G04 Created by KiCad (PCBNEW 7.0.11+dfsg-1build4) date 2026-09-27 23:03:20*
%MOMM*%
%LPD*%
G01*
G04 APERTURE LIST*
G04 Aperture macros list*
%AMRoundRect*
0 Rectangle with rounded corners*
0 $1 Rounding radius*
0 $2 $3 $4 $5 $6 $7 $8 $9 X,Y pos of 4 corners*
0 Add a 4 corners polygon primitive as box body*
4,1,4,$2,$3,$4,$5,$6,$7,$8,$9,$2,$3,0*
0 Add four circle primitives for the rounded corners*
1,1,$1+$1,$2,$3*
1,1,$1+$1,$4,$5*
1,1,$1+$1,$6,$7*
1,1,$1+$1,$8,$9*
0 Add four rect primitives between the rounded corners*
20,1,$1+$1,$2,$3,$4,$5,0*
20,1,$1+$1,$4,$5,$6,$7,0*
20,1,$1+$1,$6,$7,$8,$9,0*
20,1,$1+$1,$8,$9,$2,$3,0*%
G04 Aperture macros list end*
%ADD10C,3.200000*%
%ADD11R,3.500000X3.500000*%
%ADD12C,3.500000*%
%ADD13R,2.600000X2.600000*%
%ADD14C,2.600000*%
%ADD15C,2.000000*%
%ADD16R,1.700000X1.700000*%
%ADD17O,1.700000X1.700000*%
%ADD18R,1.600000X1.600000*%
%ADD19C,1.600000*%
%ADD20R,2.000000X2.000000*%
%ADD21C,1.440000*%
%ADD22RoundRect,0.750000X-0.750000X-1.000000X0.750000X-1.000000X0.750000X1.000000X-0.750000X1.000000X0*%
%ADD23RoundRect,0.875000X-0.875000X-0.875000X0.875000X-0.875000X0.875000X0.875000X-0.875000X0.875000X0*%
%ADD24R,2.540000X2.540000*%
%ADD25C,2.540000*%
G04 APERTURE END LIST*
%LPC*%
D10*
%TO.C,BT1*%
X63870000Y-146725000D03*
X119480000Y-146725000D03*
D11*
X55225000Y-146725000D03*
D12*
X127225000Y-146725000D03*
%TD*%
D10*
%TO.C,H1*%
X55000000Y-124421052D03*
%TD*%
%TO.C,H2*%
X176000000Y-105894736D03*
%TD*%
D13*
%TO.C,J9*%
X174265000Y-117065000D03*
D14*
X174265000Y-122145000D03*
X174265000Y-127225000D03*
%TD*%
D15*
%TO.C,SW1*%
X69025000Y-54525000D03*
X75525000Y-54525000D03*
X69025000Y-59025000D03*
X75525000Y-59025000D03*
%TD*%
D16*
%TO.C,J10*%
X175175000Y-78772368D03*
D17*
X175175000Y-81312368D03*
X175175000Y-83852368D03*
X175175000Y-86392368D03*
X175175000Y-88932368D03*
X175175000Y-91472368D03*
X175175000Y-94012368D03*
X175175000Y-96552368D03*
%TD*%
D10*
%TO.C,H3*%
X176000000Y-154000000D03*
%TD*%
D18*
%TO.C,C24*%
X153719698Y-105406578D03*
D19*
X157219698Y-105406578D03*
%TD*%
D15*
%TO.C,SW2*%
X117525000Y-54525000D03*
X124025000Y-54525000D03*
X117525000Y-59025000D03*
X124025000Y-59025000D03*
%TD*%
D16*
%TO.C,J5*%
X105864698Y-106561842D03*
D17*
X105864698Y-109101842D03*
%TD*%
D20*
%TO.C,C22*%
X154039646Y-93406578D03*
D15*
X159039646Y-93406578D03*
%TD*%
D16*
%TO.C,J6*%
X116325000Y-68825000D03*
D17*
X118865000Y-68825000D03*
X121405000Y-68825000D03*
X123945000Y-68825000D03*
X126485000Y-68825000D03*
X129025000Y-68825000D03*
%TD*%
D16*
%TO.C,J7*%
X80825000Y-59325000D03*
D17*
X83365000Y-59325000D03*
X85905000Y-59325000D03*
X88445000Y-59325000D03*
%TD*%
D18*
%TO.C,C8*%
X116629697Y-110932894D03*
D19*
X120129697Y-110932894D03*
%TD*%
D13*
%TO.C,J3*%
X55735000Y-90891842D03*
D14*
X55735000Y-85811842D03*
%TD*%
D20*
%TO.C,BZ1*%
X138475000Y-85538157D03*
D15*
X146075000Y-85538157D03*
%TD*%
D21*
%TO.C,J4*%
X172954999Y-55380000D03*
X170454999Y-55380000D03*
X170454999Y-57380000D03*
X172954999Y-57380000D03*
D12*
X177724999Y-60090000D03*
X165684999Y-60090000D03*
%TD*%
D16*
%TO.C,J8*%
X80825000Y-55325000D03*
D17*
X83365000Y-55325000D03*
X85905000Y-55325000D03*
X88445000Y-55325000D03*
%TD*%
D18*
%TO.C,C1*%
X86564698Y-103064473D03*
D19*
X90064698Y-103064473D03*
%TD*%
D18*
%TO.C,C3*%
X85419698Y-114064473D03*
D19*
X88919698Y-114064473D03*
%TD*%
D10*
%TO.C,H4*%
X136000000Y-154000000D03*
%TD*%
D11*
%TO.C,J1*%
X64025000Y-58860000D03*
D22*
X58025000Y-58860000D03*
D23*
X61025000Y-63560000D03*
%TD*%
D13*
%TO.C,J2*%
X55735000Y-77155000D03*
D14*
X55735000Y-72075000D03*
%TD*%
D24*
%TO.C,BT2*%
X114065000Y-96582791D03*
D25*
X124047200Y-96582791D03*
%TD*%
D18*
%TO.C,C10*%
X106219698Y-78327631D03*
D19*
X109719698Y-78327631D03*
%TD*%
%LPD*%
M02*
