M48
; DRILL file {KiCad 7.0.11+dfsg-1build4} date Sun Sep 27 22:14:50 2026
; FORMAT={-:-/ absolute / metric / decimal}
; #@! TF.CreationDate,2026-09-27T22:14:50+00:00
; #@! TF.GenerationSoftware,Kicad,Pcbnew,7.0.11+dfsg-1build4
; #@! TF.FileFunction,Plated,1,2,PTH
FMAT,2
METRIC
; #@! TA.AperFunction,Plated,PTH,ViaDrill
T1C0.600
; #@! TA.AperFunction,Plated,PTH,ComponentDrill
T2C0.800
; #@! TA.AperFunction,Plated,PTH,ComponentDrill
T3C0.920
; #@! TA.AperFunction,Plated,PTH,ComponentDrill
T4C1.000
; #@! TA.AperFunction,Plated,PTH,ComponentDrill
T5C1.016
; #@! TA.AperFunction,Plated,PTH,ComponentDrill
T6C1.100
; #@! TA.AperFunction,Plated,PTH,ComponentDrill
T7C1.300
; #@! TA.AperFunction,Plated,PTH,ComponentDrill
T8C2.000
; #@! TA.AperFunction,Plated,PTH,ComponentDrill
T9C2.330
%
G90
G05
T1
X51.721Y-80.005
X62.957Y-101.875
X63.099Y-98.671
X63.139Y-96.275
X68.475Y-105.347
X70.701Y-75.236
X71.951Y-111.023
X72.328Y-122.46
X76.784Y-93.376
X76.848Y-69.875
X77.198Y-72.428
X80.565Y-92.475
X82.506Y-107.356
X82.907Y-67.545
X83.656Y-75.145
X85.304Y-89.475
X86.044Y-95.647
X86.165Y-67.396
X88.451Y-99.129
X89.355Y-62.712
X89.397Y-65.52
X89.463Y-86.355
X92.374Y-75.626
X92.768Y-90.812
X93.414Y-52.82
X93.7Y-95.165
X94.022Y-105.626
X94.518Y-59.533
X94.677Y-57.78
X94.879Y-82.969
X95.556Y-100.44
X95.655Y-78.066
X95.67Y-61.692
X96.234Y-88.561
X98.024Y-81.159
X98.709Y-105.024
X98.995Y-65.721
X99.197Y-96.175
X99.263Y-55.659
X100.205Y-126.978
X100.789Y-123.983
X100.866Y-52.82
X101.494Y-93.909
X102.824Y-105.06
X103.095Y-86.145
X103.111Y-113.67
X103.572Y-71.17
X103.726Y-64.089
X104.014Y-66.29
X104.205Y-106.581
X105.274Y-71.197
X105.377Y-54.284
X105.512Y-94.505
X106.123Y-131.953
X106.496Y-74.105
X106.496Y-110.667
X106.83Y-57.048
X106.843Y-65.521
X106.894Y-103.343
X108.403Y-99.882
X109.906Y-119.808
X110.633Y-60.44
X111.383Y-57.9
X111.399Y-111.626
X111.414Y-63.192
X112.007Y-66.421
X112.38Y-104.036
X113.319Y-99.882
X113.405Y-111.028
X114.158Y-59.956
X114.218Y-107.116
X116.552Y-119.591
X116.684Y-117.386
X117.761Y-92.009
X118.218Y-61.999
X118.495Y-113.946
X119.814Y-108.005
X120.092Y-98.285
X122.259Y-117.723
X122.322Y-119.591
X123.737Y-86.991
X123.799Y-72.845
X124.211Y-113.217
X124.277Y-103.659
X125.181Y-109.99
X125.774Y-64.466
X126.227Y-95.246
X127.336Y-72.216
X128.078Y-109.891
X128.812Y-89.964
X129.124Y-58.86
X129.157Y-53.611
X129.676Y-86.991
X130.538Y-66.451
X131.342Y-86.213
X131.411Y-97.743
X131.549Y-79.049
X131.816Y-64.988
X131.999Y-92.009
X132.68Y-109.343
X133.005Y-101.118
X133.329Y-59.084
X133.357Y-114.197
X133.718Y-91.355
X134.7Y-66.451
X136.904Y-81.0
X138.336Y-58.741
X138.34Y-63.81
X138.591Y-55.748
X139.005Y-67.645
X140.019Y-101.636
X140.075Y-77.999
X140.136Y-86.213
X140.763Y-62.298
X141.601Y-71.27
X141.903Y-66.213
X142.332Y-56.857
X142.444Y-95.995
X144.361Y-102.245
X144.891Y-64.576
X144.957Y-59.634
X145.078Y-104.22
X145.597Y-92.595
X146.713Y-126.978
X146.822Y-76.965
X148.557Y-57.426
X148.945Y-94.07
X148.948Y-85.351
X149.198Y-111.696
X149.342Y-52.944
X149.386Y-123.983
X149.492Y-103.75
X149.769Y-116.789
X150.086Y-83.641
X150.146Y-86.61
X151.476Y-94.002
X151.54Y-62.951
X151.945Y-118.9
X152.263Y-52.152
X152.917Y-109.145
X152.942Y-94.986
X153.38Y-106.889
X153.577Y-65.177
X154.353Y-93.751
X154.752Y-79.4
X155.044Y-81.796
X155.118Y-100.145
X155.346Y-64.989
X155.556Y-104.27
X155.711Y-113.645
X155.824Y-115.421
X157.161Y-83.257
X157.169Y-58.645
X157.709Y-67.645
X158.671Y-79.152
X160.065Y-82.266
X160.469Y-93.601
X160.667Y-61.211
X161.37Y-74.997
X162.837Y-81.363
X164.309Y-80.363
X164.685Y-76.416
X165.408Y-87.018
X170.138Y-115.5
X173.929Y-82.574
T2
X82.49Y-114.775
X85.42Y-103.775
X85.99Y-114.775
X88.92Y-103.775
X106.22Y-77.775
X109.72Y-77.775
X135.304Y-114.775
X138.804Y-114.775
T3
X170.455Y-55.38
X170.455Y-57.38
X172.955Y-55.38
X172.955Y-57.38
T4
X80.825Y-55.325
X80.825Y-59.325
X83.365Y-55.325
X83.365Y-59.325
X85.905Y-55.325
X85.905Y-59.325
X88.445Y-55.325
X88.445Y-59.325
X107.165Y-114.325
X107.165Y-116.865
X116.325Y-68.825
X118.865Y-68.825
X121.405Y-68.825
X123.945Y-68.825
X126.485Y-68.825
X129.025Y-68.825
X138.475Y-84.275
X146.075Y-84.275
T5
X114.065Y-94.056
X124.047Y-94.056
T6
X69.025Y-54.525
X69.025Y-59.025
X75.525Y-54.525
X75.525Y-59.025
X117.525Y-54.525
X117.525Y-59.025
X124.025Y-54.525
X124.025Y-59.025
T7
X55.735Y-72.075
X55.735Y-77.155
X55.735Y-84.075
X55.735Y-89.155
X174.265Y-111.065
X174.265Y-116.145
X174.265Y-121.225
T8
X55.225Y-134.725
X127.225Y-134.725
T9
X165.685Y-60.09
X177.725Y-60.09
T4
X58.025Y-57.86G85X58.025Y-59.86
G05
X60.025Y-63.56G85X62.025Y-63.56
G05
X64.025Y-57.86G85X64.025Y-59.86
G05
M30
