%TF.GenerationSoftware,KiCad,Pcbnew,7.0.11+dfsg-1build4*%
%TF.CreationDate,2026-09-27T22:14:50+00:00*%
%TF.ProjectId,agrinode_hub_l,61677269-6e6f-4646-955f-6875625f6c2e,rev?*%
%TF.SameCoordinates,Original*%
%TF.FileFunction,Legend,Bot*%
%TF.FilePolarity,Positive*%
%FSLAX46Y46*%
G04 Gerber Fmt 4.6, Leading zero omitted, Abs format (unit mm)*
G04 Created by KiCad (PCBNEW 7.0.11+dfsg-1build4) date 2026-09-27 22:14:50*
%MOMM*%
%LPD*%
G01*
G04 APERTURE LIST*
G04 Aperture macros list*
%AMRoundRect*
0 Rectangle with rounded corners*
0 $1 Rounding radius*
0 $2 $3 $4 $5 $6 $7 $8 $9 X,Y pos of 4 corners*
0 Add a 4 corners polygon primitive as box body*
4,1,4,$2,$3,$4,$5,$6,$7,$8,$9,$2,$3,0*
0 Add four circle primitives for the rounded corners*
1,1,$1+$1,$2,$3*
1,1,$1+$1,$4,$5*
1,1,$1+$1,$6,$7*
1,1,$1+$1,$8,$9*
0 Add four rect primitives between the rounded corners*
20,1,$1+$1,$2,$3,$4,$5,0*
20,1,$1+$1,$4,$5,$6,$7,0*
20,1,$1+$1,$6,$7,$8,$9,0*
20,1,$1+$1,$8,$9,$2,$3,0*%
G04 Aperture macros list end*
%ADD10C,3.200000*%
%ADD11R,2.540000X2.540000*%
%ADD12C,2.540000*%
%ADD13R,2.600000X2.600000*%
%ADD14C,2.600000*%
%ADD15C,2.000000*%
%ADD16R,1.600000X1.600000*%
%ADD17C,1.600000*%
%ADD18R,3.500000X3.500000*%
%ADD19C,3.500000*%
%ADD20RoundRect,0.750000X-0.750000X-1.000000X0.750000X-1.000000X0.750000X1.000000X-0.750000X1.000000X0*%
%ADD21RoundRect,0.875000X-0.875000X-0.875000X0.875000X-0.875000X0.875000X0.875000X-0.875000X0.875000X0*%
%ADD22R,1.700000X1.700000*%
%ADD23O,1.700000X1.700000*%
%ADD24C,1.440000*%
%ADD25R,2.000000X2.000000*%
G04 APERTURE END LIST*
%LPC*%
D10*
%TO.C,H3*%
X176000000Y-142000000D03*
%TD*%
D11*
%TO.C,BT2*%
X114065000Y-94056476D03*
D12*
X124047200Y-94056476D03*
%TD*%
D13*
%TO.C,J9*%
X174265000Y-111065000D03*
D14*
X174265000Y-116145000D03*
X174265000Y-121225000D03*
%TD*%
D13*
%TO.C,J3*%
X55735000Y-89155000D03*
D14*
X55735000Y-84075000D03*
%TD*%
D13*
%TO.C,J2*%
X55735000Y-77155000D03*
D14*
X55735000Y-72075000D03*
%TD*%
D15*
%TO.C,SW2*%
X117525000Y-54525000D03*
X124025000Y-54525000D03*
X117525000Y-59025000D03*
X124025000Y-59025000D03*
%TD*%
D16*
%TO.C,C1*%
X85419698Y-103775000D03*
D17*
X88919698Y-103775000D03*
%TD*%
D10*
%TO.C,BT1*%
X63870000Y-134725000D03*
X119480000Y-134725000D03*
D18*
X55225000Y-134725000D03*
D19*
X127225000Y-134725000D03*
%TD*%
D18*
%TO.C,J1*%
X64025000Y-58860000D03*
D20*
X58025000Y-58860000D03*
D21*
X61025000Y-63560000D03*
%TD*%
D10*
%TO.C,H4*%
X136000000Y-142000000D03*
%TD*%
D22*
%TO.C,J5*%
X107164698Y-114325000D03*
D23*
X107164698Y-116865000D03*
%TD*%
D10*
%TO.C,H1*%
X55000000Y-117000000D03*
%TD*%
D22*
%TO.C,J6*%
X116325000Y-68825000D03*
D23*
X118865000Y-68825000D03*
X121405000Y-68825000D03*
X123945000Y-68825000D03*
X126485000Y-68825000D03*
X129025000Y-68825000D03*
%TD*%
D22*
%TO.C,J8*%
X80825000Y-55325000D03*
D23*
X83365000Y-55325000D03*
X85905000Y-55325000D03*
X88445000Y-55325000D03*
%TD*%
D16*
%TO.C,C8*%
X135304396Y-114775000D03*
D17*
X138804396Y-114775000D03*
%TD*%
D16*
%TO.C,C3*%
X82489697Y-114775000D03*
D17*
X85989697Y-114775000D03*
%TD*%
D16*
%TO.C,C10*%
X106219698Y-77775000D03*
D17*
X109719698Y-77775000D03*
%TD*%
D15*
%TO.C,SW1*%
X69025000Y-54525000D03*
X75525000Y-54525000D03*
X69025000Y-59025000D03*
X75525000Y-59025000D03*
%TD*%
D22*
%TO.C,J7*%
X80825000Y-59325000D03*
D23*
X83365000Y-59325000D03*
X85905000Y-59325000D03*
X88445000Y-59325000D03*
%TD*%
D24*
%TO.C,J4*%
X172954999Y-55380000D03*
X170454999Y-55380000D03*
X170454999Y-57380000D03*
X172954999Y-57380000D03*
D19*
X177724999Y-60090000D03*
X165684999Y-60090000D03*
%TD*%
D25*
%TO.C,BZ1*%
X138475000Y-84275000D03*
D15*
X146075000Y-84275000D03*
%TD*%
D10*
%TO.C,H2*%
X176000000Y-101000000D03*
%TD*%
%LPD*%
M02*
